<?xml version="1.0" encoding="UTF-8" standalone="no"?>
<!DOCTYPE svg PUBLIC "-//W3C//DTD SVG 1.1//EN"
 "http://www.w3.org/Graphics/SVG/1.1/DTD/svg11.dtd">
<!-- Generated by graphviz version 2.43.0 (0)
 -->
<!-- Title: %3 Pages: 1 -->
<svg width="448pt" height="369pt"
 viewBox="0.00 0.00 448.00 369.00" xmlns="http://www.w3.org/2000/svg" xmlns:xlink="http://www.w3.org/1999/xlink">
<g id="graph0" class="graph" transform="scale(1 1) rotate(0) translate(4 365)">
<title>%3</title>
<polygon fill="white" stroke="transparent" points="-4,4 -4,-365 444,-365 444,4 -4,4"/>
<!-- _start_ -->
<g id="node1" class="node">
<title>_start_</title>
<path fill="#f3f0ff" stroke="black" d="M393,-361C393,-361 355,-361 355,-361 349,-361 343,-355 343,-349 343,-349 343,-337 343,-337 343,-331 349,-325 355,-325 355,-325 393,-325 393,-325 399,-325 405,-331 405,-337 405,-337 405,-349 405,-349 405,-355 399,-361 393,-361"/>
<text text-anchor="middle" x="374" y="-339.3" font-family="Helvetica,sans-Serif" font-size="14.00">_start_</text>
</g>
<!-- decision_making -->
<g id="node2" class="node">
<title>decision_making</title>
<path fill="#f3f0ff" stroke="black" d="M428,-296C428,-296 320,-296 320,-296 314,-296 308,-290 308,-284 308,-284 308,-272 308,-272 308,-266 314,-260 320,-260 320,-260 428,-260 428,-260 434,-260 440,-266 440,-272 440,-272 440,-284 440,-284 440,-290 434,-296 428,-296"/>
<text text-anchor="middle" x="374" y="-274.3" font-family="Helvetica,sans-Serif" font-size="14.00">decision_making</text>
</g>
<!-- _start_&#45;&gt;decision_making -->
<g id="edge1" class="edge">
<title>_start_&#45;&gt;decision_making</title>
<path fill="none" stroke="black" d="M374,-324.78C374,-319.09 374,-312.61 374,-306.34"/>
<polygon fill="black" stroke="black" points="377.5,-306.19 374,-296.19 370.5,-306.19 377.5,-306.19"/>
</g>
<!-- planning -->
<g id="node3" class="node">
<title>planning</title>
<path fill="#f3f0ff" stroke="black" d="M348.5,-231C348.5,-231 295.5,-231 295.5,-231 289.5,-231 283.5,-225 283.5,-219 283.5,-219 283.5,-207 283.5,-207 283.5,-201 289.5,-195 295.5,-195 295.5,-195 348.5,-195 348.5,-195 354.5,-195 360.5,-201 360.5,-207 360.5,-207 360.5,-219 360.5,-219 360.5,-225 354.5,-231 348.5,-231"/>
<text text-anchor="middle" x="322" y="-209.3" font-family="Helvetica,sans-Serif" font-size="14.00">planning</text>
</g>
<!-- decision_making&#45;&gt;planning -->
<g id="edge2" class="edge">
<title>decision_making&#45;&gt;planning</title>
<path fill="none" stroke="black" d="M359.79,-259.78C354.52,-253.4 348.42,-246.01 342.69,-239.06"/>
<polygon fill="black" stroke="black" points="345.26,-236.68 336.19,-231.19 339.86,-241.13 345.26,-236.68"/>
</g>
<!-- end -->
<g id="node8" class="node">
<title>end</title>
<ellipse fill="#dcd3fc" stroke="black" cx="246" cy="-18" rx="45.49" ry="18"/>
<text text-anchor="middle" x="246" y="-14.3" font-family="Helvetica,sans-Serif" font-size="14.00">__end__</text>
</g>
<!-- decision_making&#45;&gt;end -->
<g id="edge8" class="edge">
<title>decision_making&#45;&gt;end</title>
<path fill="none" stroke="black" stroke-dasharray="5,2" d="M377.75,-259.62C379.41,-251.05 381.18,-240.53 382,-231 388.59,-154.61 385.58,-122.63 335,-65 323.01,-51.34 305.98,-41.17 290.02,-33.91"/>
<polygon fill="black" stroke="black" points="291.37,-30.68 280.8,-29.97 288.62,-37.12 291.37,-30.68"/>
</g>
<!-- agent -->
<g id="node4" class="node">
<title>agent</title>
<path fill="#f3f0ff" stroke="black" d="M207,-166C207,-166 175,-166 175,-166 169,-166 163,-160 163,-154 163,-154 163,-142 163,-142 163,-136 169,-130 175,-130 175,-130 207,-130 207,-130 213,-130 219,-136 219,-142 219,-142 219,-154 219,-154 219,-160 213,-166 207,-166"/>
<text text-anchor="middle" x="191" y="-144.3" font-family="Helvetica,sans-Serif" font-size="14.00">agent</text>
</g>
<!-- planning&#45;&gt;agent -->
<g id="edge3" class="edge">
<title>planning&#45;&gt;agent</title>
<path fill="none" stroke="black" d="M286.55,-194.95C268.48,-186.26 246.52,-175.7 228.21,-166.89"/>
<polygon fill="black" stroke="black" points="229.54,-163.65 219.01,-162.47 226.5,-169.96 229.54,-163.65"/>
</g>
<!-- planning&#45;&gt;end -->
<g id="edge9" class="edge">
<title>planning&#45;&gt;end</title>
<path fill="none" stroke="black" stroke-dasharray="5,2" d="M322.23,-194.54C321.89,-165.77 318.11,-107.37 295,-65 290.01,-55.86 282.55,-47.5 274.94,-40.49"/>
<polygon fill="black" stroke="black" points="277.22,-37.84 267.37,-33.95 272.65,-43.13 277.22,-37.84"/>
</g>
<!-- tools -->
<g id="node5" class="node">
<title>tools</title>
<path fill="#f3f0ff" stroke="black" d="M42,-101C42,-101 12,-101 12,-101 6,-101 0,-95 0,-89 0,-89 0,-77 0,-77 0,-71 6,-65 12,-65 12,-65 42,-65 42,-65 48,-65 54,-71 54,-77 54,-77 54,-89 54,-89 54,-95 48,-101 42,-101"/>
<text text-anchor="middle" x="27" y="-79.3" font-family="Helvetica,sans-Serif" font-size="14.00">tools</text>
</g>
<!-- agent&#45;&gt;tools -->
<g id="edge4" class="edge">
<title>agent&#45;&gt;tools</title>
<path fill="none" stroke="black" d="M162.81,-136.17C135.41,-125.64 93.66,-109.61 63.68,-98.09"/>
<polygon fill="black" stroke="black" points="64.6,-94.69 54.01,-94.38 62.09,-101.23 64.6,-94.69"/>
</g>
<!-- continue -->
<g id="node6" class="node">
<title>continue</title>
<path fill="#f3f0ff" stroke="black" d="M162.5,-101C162.5,-101 109.5,-101 109.5,-101 103.5,-101 97.5,-95 97.5,-89 97.5,-89 97.5,-77 97.5,-77 97.5,-71 103.5,-65 109.5,-65 109.5,-65 162.5,-65 162.5,-65 168.5,-65 174.5,-71 174.5,-77 174.5,-77 174.5,-89 174.5,-89 174.5,-95 168.5,-101 162.5,-101"/>
<text text-anchor="middle" x="136" y="-79.3" font-family="Helvetica,sans-Serif" font-size="14.00">continue</text>
</g>
<!-- agent&#45;&gt;continue -->
<g id="edge5" class="edge">
<title>agent&#45;&gt;continue</title>
<path fill="none" stroke="black" d="M175.97,-129.78C170.39,-123.4 163.95,-116.01 157.88,-109.06"/>
<polygon fill="black" stroke="black" points="160.22,-106.43 151.01,-101.19 154.95,-111.03 160.22,-106.43"/>
</g>
<!-- judge -->
<g id="node7" class="node">
<title>judge</title>
<path fill="#f3f0ff" stroke="black" d="M262,-101C262,-101 230,-101 230,-101 224,-101 218,-95 218,-89 218,-89 218,-77 218,-77 218,-71 224,-65 230,-65 230,-65 262,-65 262,-65 268,-65 274,-71 274,-77 274,-77 274,-89 274,-89 274,-95 268,-101 262,-101"/>
<text text-anchor="middle" x="246" y="-79.3" font-family="Helvetica,sans-Serif" font-size="14.00">judge</text>
</g>
<!-- agent&#45;&gt;judge -->
<g id="edge6" class="edge">
<title>agent&#45;&gt;judge</title>
<path fill="none" stroke="black" d="M206.03,-129.78C211.61,-123.4 218.05,-116.01 224.12,-109.06"/>
<polygon fill="black" stroke="black" points="227.05,-111.03 230.99,-101.19 221.78,-106.43 227.05,-111.03"/>
</g>
<!-- tools&#45;&gt;end -->
<g id="edge10" class="edge">
<title>tools&#45;&gt;end</title>
<path fill="none" stroke="black" stroke-dasharray="5,2" d="M54.1,-72.22C61.2,-69.76 68.86,-67.2 76,-65 117.22,-52.29 164.63,-39.62 198.9,-30.8"/>
<polygon fill="black" stroke="black" points="199.82,-34.18 208.64,-28.31 198.09,-27.4 199.82,-34.18"/>
</g>
<!-- continue&#45;&gt;end -->
<g id="edge11" class="edge">
<title>continue&#45;&gt;end</title>
<path fill="none" stroke="black" stroke-dasharray="5,2" d="M165.77,-64.95C180.1,-56.74 197.35,-46.86 212.18,-38.37"/>
<polygon fill="black" stroke="black" points="214.11,-41.3 221.05,-33.29 210.63,-35.22 214.11,-41.3"/>
</g>
<!-- judge&#45;&gt;end -->
<g id="edge7" class="edge">
<title>judge&#45;&gt;end</title>
<path fill="none" stroke="black" d="M246,-64.78C246,-59.09 246,-52.61 246,-46.34"/>
<polygon fill="black" stroke="black" points="249.5,-46.19 246,-36.19 242.5,-46.19 249.5,-46.19"/>
</g>
</g>
</svg>
