<?xml version="1.0" encoding="UTF-8" standalone="no"?>
<!DOCTYPE svg PUBLIC "-//W3C//DTD SVG 1.1//EN"
 "http://www.w3.org/Graphics/SVG/1.1/DTD/svg11.dtd">
<!-- Generated by graphviz version 2.43.0 (0)
 -->
<!-- Title: %3 Pages: 1 -->
<svg width="315pt" height="407pt"
 viewBox="0.00 0.00 315.00 407.00" xmlns="http://www.w3.org/2000/svg" xmlns:xlink="http://www.w3.org/1999/xlink">
<g id="graph0" class="graph" transform="scale(1 1) rotate(0) translate(4 403)">
<title>%3</title>
<polygon fill="white" stroke="transparent" points="-4,4 -4,-403 311,-403 311,4 -4,4"/>
<!-- start_node -->
<g id="node1" class="node">
<title>start_node</title>
<ellipse fill="#dcd3fc" stroke="#9c91d8" cx="70" cy="-381" rx="47.39" ry="18"/>
<text text-anchor="middle" x="70" y="-377.3" font-family="Helvetica,sans-Serif" font-size="14.00">__start__</text>
</g>
<!-- decision_making -->
<g id="node3" class="node">
<title>decision_making</title>
<path fill="#f3f0ff" stroke="#9c91d8" d="M117,-332C117,-332 23,-332 23,-332 17,-332 11,-326 11,-320 11,-320 11,-308 11,-308 11,-302 17,-296 23,-296 23,-296 117,-296 117,-296 123,-296 129,-302 129,-308 129,-308 129,-320 129,-320 129,-326 123,-332 117,-332"/>
<text text-anchor="middle" x="70" y="-310.3" font-family="Helvetica,sans-Serif" font-size="14.00">decision_making</text>
</g>
<!-- start_node&#45;&gt;decision_making -->
<g id="edge1" class="edge">
<title>start_node&#45;&gt;decision_making</title>
<path fill="none" stroke="black" d="M70,-362.92C70,-356.7 70,-349.5 70,-342.6"/>
<polygon fill="black" stroke="black" points="73.5,-342.19 70,-332.19 66.5,-342.19 73.5,-342.19"/>
</g>
<!-- end_node -->
<g id="node2" class="node">
<title>end_node</title>
<ellipse fill="#dcd3fc" stroke="#9c91d8" cx="87" cy="-18" rx="44.69" ry="18"/>
<text text-anchor="middle" x="87" y="-14.3" font-family="Helvetica,sans-Serif" font-size="14.00">__end__</text>
</g>
<!-- decision_making&#45;&gt;end_node -->
<g id="edge6" class="edge">
<title>decision_making&#45;&gt;end_node</title>
<path fill="none" stroke="black" stroke-dasharray="5,2" d="M34.18,-295.9C16.96,-284.97 0,-268.9 0,-248 0,-248 0,-248 0,-98 0,-70.08 24.86,-49.44 48,-36.27"/>
<polygon fill="black" stroke="black" points="49.89,-39.22 57.06,-31.42 46.59,-33.05 49.89,-39.22"/>
</g>
<!-- planning -->
<g id="node4" class="node">
<title>planning</title>
<path fill="#f3f0ff" stroke="#9c91d8" d="M216,-265C216,-265 172,-265 172,-265 166,-265 160,-259 160,-253 160,-253 160,-241 160,-241 160,-235 166,-229 172,-229 172,-229 216,-229 216,-229 222,-229 228,-235 228,-241 228,-241 228,-253 228,-253 228,-259 222,-265 216,-265"/>
<text text-anchor="middle" x="194" y="-243.3" font-family="Helvetica,sans-Serif" font-size="14.00">planning</text>
</g>
<!-- decision_making&#45;&gt;planning -->
<g id="edge2" class="edge">
<title>decision_making&#45;&gt;planning</title>
<path fill="none" stroke="black" d="M102.58,-295.92C117.7,-288 135.85,-278.48 151.98,-270.03"/>
<polygon fill="black" stroke="black" points="153.98,-272.93 161.21,-265.19 150.73,-266.73 153.98,-272.93"/>
</g>
<!-- agent -->
<g id="node5" class="node">
<title>agent</title>
<path fill="#f3f0ff" stroke="#9c91d8" d="M209,-198C209,-198 179,-198 179,-198 173,-198 167,-192 167,-186 167,-186 167,-174 167,-174 167,-168 173,-162 179,-162 179,-162 209,-162 209,-162 215,-162 221,-168 221,-174 221,-174 221,-186 221,-186 221,-192 215,-198 209,-198"/>
<text text-anchor="middle" x="194" y="-176.3" font-family="Helvetica,sans-Serif" font-size="14.00">agent</text>
</g>
<!-- planning&#45;&gt;agent -->
<g id="edge3" class="edge">
<title>planning&#45;&gt;agent</title>
<path fill="none" stroke="black" d="M194,-228.92C194,-222.7 194,-215.5 194,-208.6"/>
<polygon fill="black" stroke="black" points="197.5,-208.19 194,-198.19 190.5,-208.19 197.5,-208.19"/>
</g>
<!-- agent&#45;&gt;end_node -->
<g id="edge8" class="edge">
<title>agent&#45;&gt;end_node</title>
<path fill="none" stroke="black" stroke-dasharray="5,2" d="M166.79,-167.31C157.33,-162.19 147.28,-155.4 140,-147 114.44,-117.51 99.99,-73.98 92.83,-46.05"/>
<polygon fill="black" stroke="black" points="96.19,-45.07 90.44,-36.18 89.39,-46.72 96.19,-45.07"/>
</g>
<!-- tools -->
<g id="node6" class="node">
<title>tools</title>
<path fill="#f3f0ff" stroke="#9c91d8" d="M196,-117C196,-117 166,-117 166,-117 160,-117 154,-111 154,-105 154,-105 154,-93 154,-93 154,-87 160,-81 166,-81 166,-81 196,-81 196,-81 202,-81 208,-87 208,-93 208,-93 208,-105 208,-105 208,-111 202,-117 196,-117"/>
<text text-anchor="middle" x="181" y="-95.3" font-family="Helvetica,sans-Serif" font-size="14.00">tools</text>
</g>
<!-- agent&#45;&gt;tools -->
<g id="edge4" class="edge">
<title>agent&#45;&gt;tools</title>
<path fill="none" stroke="black" d="M166.79,-164.08C160.84,-159.44 155.34,-153.74 152,-147 148.47,-139.87 150.27,-132.43 154.33,-125.62"/>
<polygon fill="black" stroke="black" points="157.27,-127.52 160.43,-117.41 151.65,-123.35 157.27,-127.52"/>
<text text-anchor="middle" x="175.5" y="-135.8" font-family="Times,serif" font-size="14.00">continue</text>
</g>
<!-- judge -->
<g id="node7" class="node">
<title>judge</title>
<path fill="#f3f0ff" stroke="#9c91d8" d="M295,-117C295,-117 265,-117 265,-117 259,-117 253,-111 253,-105 253,-105 253,-93 253,-93 253,-87 259,-81 265,-81 265,-81 295,-81 295,-81 301,-81 307,-87 307,-93 307,-93 307,-105 307,-105 307,-111 301,-117 295,-117"/>
<text text-anchor="middle" x="280" y="-95.3" font-family="Helvetica,sans-Serif" font-size="14.00">judge</text>
</g>
<!-- agent&#45;&gt;judge -->
<g id="edge7" class="edge">
<title>agent&#45;&gt;judge</title>
<path fill="none" stroke="black" stroke-dasharray="5,2" d="M218.74,-161.84C224.89,-157.24 231.34,-152.12 237,-147 244.47,-140.25 252.07,-132.35 258.76,-124.98"/>
<polygon fill="black" stroke="black" points="261.58,-127.07 265.61,-117.27 256.35,-122.42 261.58,-127.07"/>
</g>
<!-- tools&#45;&gt;agent -->
<g id="edge5" class="edge">
<title>tools&#45;&gt;agent</title>
<path fill="none" stroke="black" d="M196.94,-117.1C200.24,-121.63 203.24,-126.73 205,-132 207.12,-138.37 206.84,-145.35 205.45,-151.93"/>
<polygon fill="black" stroke="black" points="202.01,-151.24 202.54,-161.82 208.72,-153.22 202.01,-151.24"/>
</g>
<!-- judge&#45;&gt;end_node -->
<g id="edge10" class="edge">
<title>judge&#45;&gt;end_node</title>
<path fill="none" stroke="black" stroke-dasharray="5,2" d="M252.76,-86.85C219.95,-73.42 164.55,-50.75 126.92,-35.34"/>
<polygon fill="black" stroke="black" points="127.86,-31.94 117.28,-31.4 125.21,-38.42 127.86,-31.94"/>
<text text-anchor="middle" x="210" y="-54.8" font-family="Times,serif" font-size="14.00">end</text>
</g>
<!-- judge&#45;&gt;planning -->
<g id="edge9" class="edge">
<title>judge&#45;&gt;planning</title>
<path fill="none" stroke="black" stroke-dasharray="5,2" d="M280.52,-117.38C280.29,-126.43 279.23,-137.55 276,-147 265.8,-176.83 241.89,-203.88 222.51,-222.14"/>
<polygon fill="black" stroke="black" points="220.09,-219.6 215.07,-228.93 224.81,-224.77 220.09,-219.6"/>
</g>
</g>
</svg>
