<svg width="800" height="500" viewBox="0 0 800 500" fill="none" xmlns="http://www.w3.org/2000/svg">
  <defs>
    <marker id="arrowhead" markerWidth="10" markerHeight="7" refX="10" refY="3.5" orient="auto">
      <polygon points="0 0, 10 3.5, 0 7" fill="#11ae45"/>
    </marker>
  </defs>

  <rect width="800" height="500" fill="#f5f5f5" fill-opacity="0.05"/>

  <g transform="translate(50, 50)">
    <line x1="120" y1="200" x2="220" y2="200" stroke="#11ae45" stroke-width="3" stroke-dasharray="5,5" marker-end="url(#arrowhead)"/>
    <line x1="320" y1="200" x2="420" y2="200" stroke="#11ae45" stroke-width="3" stroke-dasharray="5,5" marker-end="url(#arrowhead)"/>
    <line x1="520" y1="200" x2="620" y2="200" stroke="#11ae45" stroke-width="3" stroke-dasharray="5,5" marker-end="url(#arrowhead)"/>

    <rect x="20" y="150" width="100" height="100" rx="10" ry="10" fill="#2a2f4f" fill-opacity="0.8"/>
    <text x="70" y="205" text-anchor="middle" fill="white" font-family="Arial" font-size="14">Data</text>
    <text x="70" y="225" text-anchor="middle" fill="white" font-family="Arial" font-size="14">Collection</text>

    <rect x="240" y="150" width="100" height="100" rx="10" ry="10" fill="#2a2f4f" fill-opacity="0.8"/>
    <text x="290" y="205" text-anchor="middle" fill="white" font-family="Arial" font-size="14">Data</text>
    <text x="290" y="225" text-anchor="middle" fill="white" font-family="Arial" font-size="14">Preprocessing</text>

    <rect x="440" y="150" width="100" height="100" rx="10" ry="10" fill="#2a2f4f" fill-opacity="0.8"/>
    <text x="490" y="205" text-anchor="middle" fill="white" font-family="Arial" font-size="14">Model</text>
    <text x="490" y="225" text-anchor="middle" fill="white" font-family="Arial" font-size="14">Training</text>

    <rect x="640" y="150" width="100" height="100" rx="10" ry="10" fill="#2a2f4f" fill-opacity="0.8"/>
    <text x="690" y="205" text-anchor="middle" fill="white" font-family="Arial" font-size="14">Evaluation &</text>
    <text x="690" y="225" text-anchor="middle" fill="white" font-family="Arial" font-size="14">Deployment</text>

    <rect x="30" y="270" width="80" height="10" rx="5" ry="5" fill="#11ae45" fill-opacity="0.6"/>
    <rect x="30" y="285" width="60" height="10" rx="5" ry="5" fill="#11ae45" fill-opacity="0.6"/>
    <rect x="30" y="300" width="70" height="10" rx="5" ry="5" fill="#11ae45" fill-opacity="0.6"/>
    <rect x="30" y="315" width="50" height="10" rx="5" ry="5" fill="#11ae45" fill-opacity="0.6"/>

    <circle cx="255" cy="290" r="5" fill="#11ae45" fill-opacity="0.8"/>
    <circle cx="270" cy="305" r="5" fill="#11ae45" fill-opacity="0.8"/>
    <circle cx="285" cy="285" r="5" fill="#11ae45" fill-opacity="0.8"/>
    <circle cx="300" cy="295" r="5" fill="#11ae45" fill-opacity="0.8"/>
    <circle cx="315" cy="280" r="5" fill="#11ae45" fill-opacity="0.8"/>
    <circle cx="330" cy="310" r="5" fill="#11ae45" fill-opacity="0.8"/>
    <line x1="255" y1="290" x2="270" y2="305" stroke="#11ae45" stroke-opacity="0.5"/>
    <line x1="270" y1="305" x2="285" y2="285" stroke="#11ae45" stroke-opacity="0.5"/>
    <line x1="285" y1="285" x2="300" y2="295" stroke="#11ae45" stroke-opacity="0.5"/>
    <line x1="300" y1="295" x2="315" y2="280" stroke="#11ae45" stroke-opacity="0.5"/>
    <line x1="315" y1="280" x2="330" y2="310" stroke="#11ae45" stroke-opacity="0.5"/>

    <rect x="460" y="270" width="60" height="60" fill="none" stroke="#11ae45" stroke-width="2"/>
    <line x1="460" y1="270" x2="520" y2="330" stroke="#11ae45" stroke-width="2"/>
    <line x1="460" y1="330" x2="520" y2="270" stroke="#11ae45" stroke-width="2"/>

    <circle cx="690" cy="290" r="25" fill="none" stroke="#11ae45" stroke-width="2"/>
    <line x1="672" y1="272" x2="708" y2="308" stroke="#11ae45" stroke-width="2"/>
    <line x1="672" y1="308" x2="708" y2="272" stroke="#11ae45" stroke-width="2"/>

    <text x="400" y="50" text-anchor="middle" fill="#2a2f4f" font-family="Arial" font-size="24" font-weight="bold">Machine Learning Pipeline</text>
  </g>
</svg>


